<svg height="77.333336" viewBox="0 0 226.66667 77.333336" width="226.66667" xmlns="http://www.w3.org/2000/svg"><g fill="#231f20" transform="matrix(.13333333 0 0 -.13333333 0 77.333333)"><path d="m568.66 563.68v-563.67609375h-558.66391v575.68009375h558.66391zm-24.004-539.6722v527.6722h-510.656v-527.6722z"/><path d="m180.707 466.547v-357.402h-24.004v357.402z"/><path d="m251.957 333v-16.965l-24.004 16.965zm0-16.965-24.004 16.965v-10.816-213.039h24.004z"/><path d="m374.301 466.547v-357.402h-24.004v357.402z"/><path d="m445.551 466.547v-357.402h-24.004v357.402z"/><path d="m180.707 466.547 192.543-353.445-22.953-3.957-192.547 353.445z"/><path d="m255.211 466.547 118.187-218.152-22.957-3.961-120.328 222.113z"/><path d="m445.551 466.547v-357.402h-24.004v357.402z"/><path d="m768.039 225.547h-50.656v-116.641h51.824c26.328 0 42.492 11.996 42.492 31.992 0 15.665-9.332 26.829-24.996 29.497 12.668 3.164 20.5 12.992 20.5 25.992 0 18.16-15 29.16-39.164 29.16zm-.996-48.32h-29.996v30.656h29.996c12.496.168 19.996-5.332 19.996-14.996 0-10-7.5-15.66-19.996-15.66zm0-50.661h-29.996v33.332h29.996c15.328.165 24.496-6.171 24.496-16.5 0-10.832-9.168-16.996-24.496-16.832"/><path d="m925.68 225.547h-19.996l-32.661-56.82-33.332 56.82h-19.824l43.488-78.484v-38.157h19.497v38.824z"/><path d="m977.336 225.547v-17.664h36.824v-98.977h19.67v98.977h36.99v17.664z"/><path d="m1087.65 225.547v-116.641h19.66v48.324h61.83v-48.324h19.66v116.641h-19.66v-50.656h-61.83v50.656z"/><path d="m1219.46 225.547v-116.641h85.32v17.66h-65.65v32.164h56.99v17.497h-56.99v31.656h63.65v17.664z"/><path d="m1449.76 197.055 8.16 17.328c-10.83 7.164-25.66 11.996-40.83 11.996-25.32 0-42.48-12.496-42.48-32.492 0-41.492 62.98-26.992 62.98-52.989 0-9-8.16-14.164-21.83-14.164-12.49 0-27.49 5.996-39.49 16.996l-8.5-16.996c12-11 29.33-18.496 47.66-18.496 25.66 0 43.99 12.828 43.99 33.66.17 41.993-62.82 28.329-62.82 53.825 0 7.828 7.5 12.16 19 12.16 8.83 0 21.49-3.164 34.16-10.828"/><path d="m1482.41 225.547v-116.641h85.32v17.66h-65.65v32.164h56.99v17.497h-56.99v31.656h63.65v17.664z"/><path d="m1678.21 108.906h21l-50.99 116.641h-20.16l-51.49-116.641h20.49l11.17 26.324h58.82zm-62.65 43.824 21.99 51.821 22-51.821z"/><path d="m717.387 466.504v-181.66h30.621v130.277l96.801-130.277h30.105v181.66h-30.105v-130.531l-97.321 130.531z"/><path d="m1004.15 467.281c-54.24 0-96.279-39.441-96.279-91.605 0-51.903 42.039-92.129 96.279-92.129s96.28 40.226 96.28 92.129c0 51.906-42.04 91.605-96.28 91.605zm.26-27.504c35.55 0 64.62-28.027 64.62-64.101s-29.07-64.617-64.62-64.617c-35.555 0-65.398 28.543-65.398 64.617s29.586 64.101 65.398 64.101"/><path d="m1107.44 466.504 72.4-181.66h31.66l73.45 181.66h-31.92l-56.58-147.664-56.05 147.664z"/><path d="m1336.59 360.105v106.399h-30.62v-106.399c0-47.492 30.1-76.558 79.15-76.558s78.9 29.066 78.9 76.558v106.399h-30.63v-106.399c0-30.882-18.43-49.046-48.01-49.046-29.84 0-48.79 18.421-48.79 49.046"/><path d="m1507.88 466.504v-181.66h28.8v135.73l57.31-116.785h19.98l57.32 116.785.25-135.73h28.34v181.66h-36.12l-59.65-120.672-59.9 120.672z"/></g></svg>